Coordinates
version=1
nRows=10
nColumns=34
inDegrees=yes

Units are S.I. units (second, meters, Newtons, ...)
If the header above contains a line with 'inDegrees', this indicates whether rotational values are in degrees (yes) or radians (no).

endheader
time	pelvis_tilt	pelvis_list	pelvis_rotation	pelvis_tx	pelvis_ty	pelvis_tz	hip_flexion_r	hip_adduction_r	hip_rotation_r	knee_angle_r	ankle_angle_r	subtalar_angle_r	mtp_angle_r	hip_flexion_l	hip_adduction_l	hip_rotation_l	knee_angle_l	ankle_angle_l	subtalar_angle_l	mtp_angle_l	lumbar_extension	lumbar_bending	lumbar_rotation	arm_flex_r	arm_add_r	arm_rot_r	elbow_flex_r	pro_sup_r	arm_flex_l	arm_add_l	arm_rot_l	elbow_flex_l	pro_sup_l
      2.25000000	     26.78914334	     -6.80606930	    -13.24223322	      0.81970144	      1.06893219	     -0.38242141	    -28.05157369	      2.67953697	     -7.32193361	      0.00000000	    -15.97792456	    -35.00000000	      0.00000000	    -30.00000025	      1.39014614	     13.89567040	      0.00000000	    -13.66665776	    -35.00000000	      0.00000000	    -56.74814364	     -3.07446577	      2.17182797	     14.15781499	     -4.96208471	     23.41429384	     19.22914680	     72.47369464	     18.79264864	     -7.50489347	     43.36806270	     14.51851499	     57.23032836
      2.26666670	     26.61207194	     -6.95596753	    -13.58634798	      0.82033180	      1.06980936	     -0.38182919	    -27.94957442	      2.74135345	     -7.03934165	      0.00000000	    -15.92490794	    -35.00000000	      0.00000000	    -30.00000025	      1.30760743	     13.63766357	      0.00000000	    -13.07388192	    -35.00000000	      0.00000000	    -56.28345487	     -2.94616327	      2.09523436	     14.10675205	     -4.99505651	     23.29164874	     18.93090469	     72.63393893	     18.44837646	     -7.58052436	     43.42380111	     14.40720723	     57.29836124
      2.28333330	     26.51620406	     -6.96498321	    -13.75181403	      0.82104919	      1.07118270	     -0.38152405	    -27.91529589	      2.72953227	     -7.04758680	      0.00000000	    -15.91575528	    -35.00000000	      0.00000000	    -30.00000025	      1.30065341	     13.64439759	      0.00000000	    -13.05337433	    -35.00000000	      0.00000000	    -56.29163729	     -2.88491865	      2.07560298	     14.04876930	     -4.98002015	     23.28619527	     18.89500914	     72.65124359	     18.45527981	     -7.59395695	     43.42242921	     14.39871900	     57.30279921
      2.30000000	     26.39430721	     -7.02562252	    -14.01385776	      0.82156691	      1.07057895	     -0.38071491	    -27.89746101	      2.73645494	     -6.96626974	      0.00000000	    -15.85693291	    -35.00000000	      0.00000000	    -30.00000025	      1.30018687	     13.27733361	      0.00000000	    -12.62459746	    -35.00000000	      0.00000000	    -55.92635294	     -2.84915065	      2.15274597	     13.89995860	     -5.04176991	     23.19452838	     18.66193295	     72.81897379	     18.08834331	     -7.52211627	     43.40541475	     14.29140687	     57.33140792
      2.31666670	     26.36889840	     -6.98883862	    -14.05168876	      0.82060334	      1.06876859	     -0.37992904	    -27.95043338	      2.76633873	     -6.96908285	      0.00000000	    -15.85624822	    -35.00000000	      0.00000000	    -30.00000025	      1.29225109	     13.27982950	      0.00000000	    -12.62604041	    -35.00000000	      0.00000000	    -55.93376346	     -2.84426832	      2.15088852	     13.88580458	     -5.04765702	     23.19376266	     18.65416897	     72.82114214	     18.08139262	     -7.52250272	     43.40470396	     14.28850680	     57.33151326
      2.33333330	     26.31945076	     -7.00825277	    -14.22069491	      0.81847819	      1.06560730	     -0.37822680	    -27.96360886	      2.81922201	     -6.99591616	      0.00000000	    -15.81401090	    -35.00000000	      0.00000000	    -30.00000025	      1.28131487	     13.25613843	      0.00000000	    -12.65041870	    -35.00000000	      0.00000000	    -55.97476494	     -2.81417177	      2.16317531	     13.69278553	     -5.12251474	     23.18604145	     18.55329586	     72.84379187	     17.98111560	     -7.58955955	     43.38921221	     14.23899310	     57.32985727
      2.35000000	     26.24232342	     -7.10253678	    -14.41152536	      0.81723238	      1.06490009	     -0.37632503	    -27.97404066	      2.95587804	     -6.87263218	      0.00000000	    -15.39676314	    -35.00000000	      0.00000000	    -30.00000025	      1.18611790	     12.65555582	      0.00000000	    -12.74537316	    -35.00000000	      0.00000000	    -55.43199608	     -2.74855266	      2.61728704	     13.32386792	     -5.23004908	     23.08995019	     18.13266985	     73.08345112	     17.68569534	     -7.44122728	     43.20658318	     14.14598032	     57.31081638
      2.36666670	     26.62191146	     -7.14760413	    -14.47468681	      0.81589868	      1.06324620	     -0.37322043	    -28.38882664	      2.99796207	     -6.79459385	      0.00000000	    -15.16856648	    -35.00000000	      0.00000000	    -30.00000025	      1.24951132	     12.14240741	      0.90132538	    -12.73496586	    -35.00000000	      0.00000000	    -55.75681670	     -2.81409836	      2.78191122	     13.28015330	     -5.27418217	     22.96960058	     17.92057385	     73.31520037	     17.78129646	     -7.44651175	     42.98857505	     14.08363586	     57.28988624
      2.38333330	     27.00706101	     -7.12655127	    -14.46952057	      0.81681793	      1.06499905	     -0.37160171	    -28.84312282	      2.99455385	     -6.77162636	      0.00000000	    -15.08745983	    -35.00000000	      0.00000000	    -30.00000025	      1.34910296	     11.90277506	      1.74735306	    -12.91927284	    -35.00000000	      0.00000000	    -55.90981446	     -2.84729882	      2.85285751	     13.10084599	     -5.35793202	     22.93045557	     17.82297960	     73.38181743	     17.56745308	     -7.45364796	     42.92926281	     14.03253621	     57.28308598
      2.40000000	     27.76840782	     -7.21485265	    -14.43161672	      0.81607143	      1.06497373	     -0.36966627	    -29.67180396	      3.00657885	     -7.01620408	      0.00000000	    -14.71146677	    -35.00000000	      0.00000000	    -30.00000025	      1.48549263	     10.89834333	      3.30053794	    -12.63073077	    -35.00000000	      0.00000000	    -56.84693178	     -2.88331432	      2.90392509	     13.14927693	     -5.33720050	     22.82097208	     17.72989434	     73.57591248	     17.81920163	     -7.45591823	     42.69979697	     14.03573493	     57.25850706
